<svg width="369" height="187" viewBox="0 0 369 187" fill="none" xmlns="http://www.w3.org/2000/svg">
<g clip-path="url(#clip0_12640_61128)">
<path d="M82.9701 62.61V125.29H62.2101V62.61H82.9701L62.4501 42.09H41.5901V104.67L82.7201 145.8H103.58V83.22L82.9701 62.61Z" fill="#181818"/>
<path d="M153.2 83.25H145.75V125.05H153.2V83.25Z" fill="#181818"/>
<path d="M162.41 83.25H170.83L190.09 109.72H191.12V83.25H198.63V125.05H190.15L170.95 98.58H169.86V125.05H162.41V83.25Z" fill="#181818"/>
<path d="M245.58 104.15C245.58 116.08 236.43 125.05 224.26 125.05H207.78V83.25H224.26C236.44 83.25 245.58 92.22 245.58 104.15ZM237.89 104.15C237.89 97.43 231.95 92.4 224.02 92.4H215.24V115.9H224.02C231.95 115.9 237.89 110.87 237.89 104.15Z" fill="#181818"/>
<path d="M283.26 115.9V125.05H252.79V83.25H282.96V92.4H260.24V99.61H280.96V108.45H260.24V115.9H283.26Z" fill="#181818"/>
<path d="M313.19 104.27L327.12 125.05H318.4L308.1 110.33H306.64L296.41 125.05H287.02L301.25 103.84L287.56 83.25H296.29L306.34 97.85H307.74L317.79 83.25H327.18L313.19 104.27Z" fill="#181818"/>
</g>
<defs>
<clipPath id="clip0_12640_61128">
<rect width="368.77" height="186.35" fill="white" transform="translate(0 0.5)"/>
</clipPath>
</defs>
</svg>
