<svg width="121" height="45" viewBox="0 0 121 45" fill="none" xmlns="http://www.w3.org/2000/svg">
<path d="M18.3041 9.10677V35.5136H9.58116V9.10677H18.3041L9.682 0.461792H0.916992V26.8265L18.1991 44.1543H26.9641V17.7897L18.3041 9.10677Z" fill="#181818"/>
<path d="M47.8135 17.8022H44.6831V35.4124H47.8135V17.8022Z" fill="#181818"/>
<path d="M51.6831 17.8022H55.221L63.3138 28.9539H63.7465V17.8022H66.9021V35.4124H63.339L55.2715 24.2607H54.8135V35.4124H51.6831V17.8022Z" fill="#181818"/>
<path d="M86.6288 26.6073C86.6288 31.6334 82.7841 35.4124 77.6705 35.4124H70.7458V17.8022H77.6705C82.7883 17.8022 86.6288 21.5813 86.6288 26.6073ZM83.3976 26.6073C83.3976 23.7762 80.9017 21.6571 77.5696 21.6571H73.8804V31.5575H77.5696C80.9017 31.5575 83.3976 29.4384 83.3976 26.6073Z" fill="#181818"/>
<path d="M102.462 31.5575V35.4124H89.6592V17.8022H102.336V21.6571H92.7895V24.6946H101.496V28.4189H92.7895V31.5575H102.462Z" fill="#181818"/>
<path d="M115.039 26.6579L120.892 35.4124H117.228L112.9 29.2109H112.286L107.988 35.4124H104.042L110.022 26.4767L104.269 17.8022H107.938L112.16 23.9532H112.749L116.971 17.8022H120.917L115.039 26.6579Z" fill="#181818"/>
</svg>
